<?xml version="1.0" encoding="utf-8"?>
<!-- Generator: Adobe Illustrator 26.0.2, SVG Export Plug-In . SVG Version: 6.00 Build 0)  -->
<svg version="1.1" id="Layer_1" xmlns="http://www.w3.org/2000/svg" xmlns:xlink="http://www.w3.org/1999/xlink" x="0px" y="0px"
	 viewBox="0 0 560 315" style="enable-background:new 0 0 560 315;" xml:space="preserve">
<style type="text/css">
	.st0{fill:none;}
	.st1{font-family:'Impact';}
	.st2{font-size:15.5337px;}
</style>
<g id="Layer_2_00000140724314014031241220000004877869671180984217_">
</g>
<g id="Layer_3">
	<path d="M302.7,278.9l0.2-244.7l64.3,0.1c71,0,128.8,54.8,128.8,122.2s-57.8,122.2-128.8,122.2L302.7,278.9L302.7,278.9
		L302.7,278.9z"/>
	<path d="M257.2,278.9L257,34.2l-64.3,0.1C121.8,34.3,64,89.2,64,156.6s57.8,122.2,128.8,122.2L257.2,278.9L257.2,278.9z"/>
	<rect x="216.2" y="19.1" class="st0" width="54.9" height="13.2"/>
	<text transform="matrix(1.0536 0 0 1 216.2734 31.4097)" class="st1 st2">CHRISTI     </text>
	<rect x="293.6" y="18.7" class="st0" width="54.9" height="13.2"/>
	<text transform="matrix(1.0536 0 0 1 293.5889 30.9062)" class="st1 st2">AN DIOR</text>
	<rect x="214.2" y="282.5" class="st0" width="54.9" height="13.2"/>
	<text transform="matrix(1.0536 0 0 1 214.1558 294.8057)" class="st1 st2">CHRISTI     </text>
	<rect x="291.5" y="282.1" class="st0" width="54.9" height="13.2"/>
	<text transform="matrix(1.0536 0 0 1 291.4707 294.3027)" class="st1 st2">AN DIOR</text>
</g>
</svg>
