<?xml version="1.0" encoding="utf-8"?>
<!-- Generator: Adobe Illustrator 26.0.2, SVG Export Plug-In . SVG Version: 6.00 Build 0)  -->
<svg version="1.1" xmlns="http://www.w3.org/2000/svg" xmlns:xlink="http://www.w3.org/1999/xlink" x="0px" y="0px"
	 viewBox="0 0 758.29 499.06" style="enable-background:new 0 0 758.29 499.06;" xml:space="preserve">
<g id="Layer_2">
</g>
<g id="Layer_3">
	<path d="M414.23,446.27l0.24-395.67l98.03,0.15c108.56,0,196.83,88.71,196.83,197.76c0,109.04-88.27,197.76-196.77,197.76H414.23z
		 M344.6,446.27L344.35,50.6l-98.03,0.15c-108.56,0-196.83,88.71-196.83,197.76c0,109.04,88.27,197.76,196.77,197.76H344.6z
		 M295.14,32.98c0-1.85-0.15-3.22-0.46-4.1c-0.31-0.88-0.96-1.61-1.94-2.2c-0.98-0.59-2.23-0.88-3.75-0.88
		c-1.12,0-2.1,0.19-2.96,0.57c-0.86,0.38-1.53,0.9-2.01,1.56c-0.48,0.66-0.77,1.35-0.87,2.07S283,31.79,283,33.22v5.8
		c0,1.95,0.16,3.4,0.48,4.37s0.96,1.73,1.94,2.28s2.22,0.82,3.72,0.82c1.45,0,2.67-0.32,3.66-0.97c0.99-0.65,1.63-1.4,1.92-2.26
		c0.29-0.86,0.43-2.32,0.43-4.37v-0.77H290v2.5c0,1.09-0.06,1.78-0.18,2.08c-0.12,0.29-0.37,0.44-0.75,0.44
		c-0.4,0-0.66-0.15-0.77-0.44c-0.11-0.29-0.17-0.92-0.17-1.89v-9.23c0-1.01,0.06-1.66,0.17-1.96c0.11-0.3,0.38-0.45,0.81-0.45
		c0.37,0,0.62,0.12,0.73,0.37s0.17,0.88,0.17,1.88v3.45h5.14V32.98z M303.66,26.22v7.1h-1.54v-7.1h-5.14v19.86h5.14v-8.34h1.54v8.34
		h5.14V26.22H303.66z M310.86,46.08H316v-8.96c0.71,0,1.15,0.13,1.31,0.38c0.17,0.25,0.25,0.91,0.25,1.98v6.6h4.77v-5.24
		c0-1.6-0.04-2.58-0.13-2.94c-0.09-0.36-0.3-0.75-0.65-1.17c-0.35-0.43-1.03-0.76-2.05-1.02c1.12-0.11,1.88-0.42,2.26-0.96
		c0.38-0.53,0.57-1.57,0.57-3.12c0-1.69-0.27-2.93-0.81-3.7c-0.54-0.77-1.24-1.25-2.1-1.44c-0.86-0.19-2.5-0.28-4.93-0.28h-3.64
		V46.08z M317.23,29.91c0.22,0.2,0.34,0.61,0.34,1.24v1.09c0,0.88-0.12,1.39-0.35,1.55c-0.23,0.16-0.64,0.24-1.21,0.24v-4.42
		C316.6,29.62,317.01,29.71,317.23,29.91z M324.33,26.22v19.86h5.14V26.22H324.33z M342.42,31.44c0-1.58-0.15-2.7-0.46-3.36
		c-0.31-0.66-0.93-1.2-1.87-1.64c-0.94-0.43-2.08-0.65-3.41-0.65c-1.22,0-2.26,0.2-3.12,0.59c-0.86,0.4-1.49,0.95-1.87,1.65
		c-0.39,0.7-0.58,1.82-0.58,3.34c0,1.06,0.14,1.92,0.41,2.6c0.27,0.68,0.62,1.21,1.03,1.59c0.42,0.38,1.26,1,2.54,1.85
		c1.28,0.84,2.08,1.44,2.4,1.8c0.32,0.36,0.48,1.12,0.48,2.29c0,0.53-0.08,0.93-0.25,1.2c-0.17,0.27-0.42,0.4-0.76,0.4
		s-0.58-0.11-0.71-0.32s-0.2-0.69-0.2-1.44v-2.42h-4.77v1.3c0,1.49,0.15,2.64,0.45,3.45c0.3,0.81,0.94,1.48,1.91,2
		c0.97,0.52,2.15,0.79,3.52,0.79c1.25,0,2.35-0.23,3.3-0.68c0.94-0.45,1.58-1.02,1.91-1.69c0.33-0.67,0.49-1.71,0.49-3.13
		c0-1.95-0.3-3.36-0.89-4.23c-0.59-0.88-2.04-1.99-4.32-3.36c-0.8-0.47-1.28-0.88-1.45-1.21c-0.18-0.34-0.27-0.83-0.27-1.5
		c0-0.52,0.08-0.9,0.24-1.15c0.16-0.25,0.39-0.38,0.7-0.38c0.28,0,0.49,0.09,0.61,0.28s0.18,0.63,0.18,1.31v1.47h4.77V31.44z
		 M343.58,26.22v3.97h3.04v15.89h5.14V30.19h3.05v-3.97H343.58z M355.98,26.22v19.86h5.14V26.22H355.98z M402.71,25.4l-2.62,19.86
		h5.31l0.31-3.57h1.84l0.28,3.57h5.25l-2.94-19.86H402.71z M405.65,38.18c0.13-1.76,0.46-4.54,0.99-8.34
		c0.26,3.31,0.52,6.09,0.78,8.34H405.65z M421.13,25.4v8.94l-2.88-8.94h-4.3v19.86h4.3v-9.03l2.67,9.03h4.5V25.4H421.13z
		 M431.89,45.27h6.48c1.23,0,2.15-0.07,2.76-0.2c0.61-0.13,1.12-0.37,1.54-0.71s0.71-0.81,0.87-1.41c0.17-0.6,0.25-1.79,0.25-3.58
		v-6.96c0-1.88-0.06-3.14-0.17-3.78c-0.11-0.64-0.4-1.22-0.85-1.75c-0.46-0.52-1.12-0.9-2-1.13c-0.87-0.23-2.55-0.34-5.04-0.34
		h-3.85V45.27z M438.18,28.98c0.2,0.12,0.33,0.3,0.39,0.56c0.06,0.25,0.09,0.83,0.09,1.73v7.72c0,1.33-0.09,2.14-0.26,2.44
		c-0.17,0.3-0.63,0.45-1.37,0.45V28.8C437.59,28.8,437.98,28.86,438.18,28.98z M445.71,25.4v19.86h5.14V25.4H445.71z M464.66,33.64
		c0-2.04-0.05-3.48-0.15-4.29s-0.4-1.57-0.92-2.27s-1.19-1.22-2.03-1.56c-0.84-0.35-1.79-0.52-2.85-0.52
		c-1.12,0-2.09,0.18-2.93,0.55c-0.84,0.37-1.5,0.9-2,1.58c-0.49,0.69-0.79,1.45-0.88,2.28c-0.09,0.83-0.14,2.24-0.14,4.24v3.4
		c0,2.04,0.05,3.48,0.15,4.29s0.4,1.57,0.92,2.27c0.51,0.7,1.19,1.22,2.03,1.56c0.84,0.35,1.79,0.52,2.85,0.52
		c1.11,0,2.09-0.18,2.93-0.55c0.84-0.37,1.5-0.9,2-1.58c0.49-0.69,0.79-1.45,0.88-2.28c0.09-0.83,0.14-2.24,0.14-4.24V33.64z
		 M459.52,39.64c0,1.17-0.05,1.91-0.15,2.22c-0.1,0.31-0.32,0.47-0.67,0.47c-0.34,0-0.56-0.13-0.65-0.4
		c-0.09-0.27-0.14-0.98-0.14-2.13v-9.27c0-1.02,0.07-1.64,0.21-1.85c0.14-0.21,0.35-0.31,0.62-0.31c0.32,0,0.53,0.13,0.63,0.39
		c0.1,0.26,0.15,0.85,0.15,1.77V39.64z M466.57,45.27h5.14v-8.96c0.71,0,1.15,0.13,1.31,0.38c0.17,0.25,0.25,0.91,0.25,1.98v6.6
		h4.77v-5.24c0-1.6-0.04-2.58-0.13-2.94c-0.09-0.36-0.3-0.75-0.65-1.17c-0.35-0.43-1.03-0.76-2.05-1.02
		c1.12-0.11,1.88-0.42,2.26-0.96c0.38-0.53,0.57-1.57,0.57-3.12c0-1.69-0.27-2.93-0.81-3.7c-0.54-0.77-1.24-1.25-2.1-1.44
		c-0.86-0.19-2.5-0.28-4.93-0.28h-3.64V45.27z M472.94,29.1c0.22,0.2,0.34,0.61,0.34,1.24v1.09c0,0.88-0.12,1.39-0.35,1.55
		c-0.23,0.16-0.64,0.24-1.21,0.24V28.8C472.31,28.8,472.72,28.9,472.94,29.1z M291.9,459.01c0-1.85-0.15-3.22-0.46-4.1
		c-0.31-0.88-0.96-1.61-1.94-2.2c-0.98-0.59-2.23-0.88-3.75-0.88c-1.12,0-2.1,0.19-2.96,0.57c-0.86,0.38-1.53,0.9-2.01,1.56
		c-0.48,0.66-0.77,1.35-0.87,2.07s-0.15,1.79-0.15,3.22v5.8c0,1.95,0.16,3.4,0.48,4.37c0.32,0.97,0.96,1.73,1.94,2.28
		s2.22,0.82,3.72,0.82c1.45,0,2.67-0.32,3.66-0.97c0.99-0.65,1.63-1.4,1.92-2.26c0.29-0.86,0.43-2.32,0.43-4.37v-0.77h-5.14v2.5
		c0,1.09-0.06,1.78-0.18,2.08c-0.12,0.29-0.37,0.44-0.75,0.44c-0.4,0-0.66-0.15-0.77-0.44c-0.11-0.29-0.17-0.92-0.17-1.89v-9.23
		c0-1.01,0.06-1.66,0.17-1.96c0.11-0.3,0.38-0.45,0.81-0.45c0.37,0,0.62,0.12,0.73,0.37s0.17,0.88,0.17,1.88v3.45h5.14V459.01z
		 M300.43,452.24v7.1h-1.54v-7.1h-5.14v19.86h5.14v-8.34h1.54v8.34h5.14v-19.86H300.43z M307.63,472.11h5.14v-8.96
		c0.71,0,1.15,0.13,1.31,0.38c0.17,0.25,0.25,0.91,0.25,1.97v6.6h4.77v-5.24c0-1.6-0.04-2.58-0.13-2.94s-0.3-0.75-0.65-1.17
		c-0.35-0.42-1.03-0.76-2.05-1.02c1.12-0.11,1.88-0.43,2.26-0.96c0.38-0.53,0.57-1.57,0.57-3.12c0-1.69-0.27-2.93-0.81-3.7
		c-0.54-0.77-1.24-1.25-2.1-1.44c-0.86-0.19-2.5-0.28-4.93-0.28h-3.64V472.11z M313.99,455.94c0.22,0.2,0.34,0.61,0.34,1.24v1.09
		c0,0.88-0.12,1.39-0.35,1.55c-0.23,0.16-0.64,0.24-1.21,0.24v-4.42C313.36,455.64,313.77,455.74,313.99,455.94z M321.09,452.24
		v19.86h5.14v-19.86H321.09z M339.18,457.47c0-1.58-0.15-2.7-0.46-3.36s-0.93-1.2-1.87-1.64s-2.08-0.65-3.41-0.65
		c-1.22,0-2.26,0.2-3.12,0.6c-0.86,0.4-1.49,0.95-1.87,1.65c-0.39,0.7-0.58,1.82-0.58,3.34c0,1.06,0.14,1.92,0.41,2.6
		c0.27,0.68,0.62,1.21,1.03,1.6c0.42,0.38,1.26,1,2.54,1.85c1.28,0.84,2.08,1.44,2.4,1.8c0.32,0.36,0.48,1.12,0.48,2.29
		c0,0.53-0.08,0.93-0.25,1.2c-0.17,0.27-0.42,0.41-0.76,0.41s-0.58-0.11-0.71-0.32c-0.13-0.21-0.2-0.69-0.2-1.43v-2.42h-4.77v1.3
		c0,1.49,0.15,2.64,0.45,3.45c0.3,0.81,0.94,1.48,1.91,2c0.97,0.52,2.15,0.79,3.52,0.79c1.25,0,2.35-0.23,3.3-0.68
		c0.94-0.45,1.58-1.02,1.91-1.69c0.33-0.67,0.49-1.71,0.49-3.13c0-1.95-0.3-3.36-0.89-4.23c-0.59-0.88-2.04-2-4.32-3.36
		c-0.8-0.47-1.28-0.88-1.45-1.21c-0.18-0.33-0.27-0.83-0.27-1.5c0-0.52,0.08-0.9,0.24-1.15s0.39-0.38,0.7-0.38
		c0.28,0,0.49,0.09,0.61,0.28c0.12,0.19,0.18,0.63,0.18,1.31v1.47h4.77V457.47z M340.34,452.24v3.98h3.04v15.89h5.14v-15.89h3.05
		v-3.98H340.34z M352.74,452.24v19.86h5.14v-19.86H352.74z M399.47,451.43l-2.62,19.86h5.31l0.31-3.57h1.84l0.28,3.57h5.25
		l-2.94-19.86H399.47z M402.41,464.2c0.13-1.76,0.46-4.54,0.99-8.34c0.26,3.31,0.52,6.09,0.78,8.34H402.41z M417.89,451.43v8.94
		l-2.88-8.94h-4.3v19.86h4.3v-9.03l2.67,9.03h4.5v-19.86H417.89z M428.66,471.29h6.48c1.23,0,2.15-0.07,2.76-0.2
		s1.12-0.37,1.54-0.71c0.42-0.34,0.71-0.81,0.87-1.41c0.17-0.6,0.25-1.79,0.25-3.58v-6.96c0-1.88-0.06-3.14-0.17-3.79
		c-0.11-0.64-0.4-1.22-0.85-1.75c-0.46-0.52-1.12-0.9-2-1.13c-0.87-0.23-2.55-0.34-5.04-0.34h-3.85V471.29z M434.94,455.01
		c0.2,0.12,0.33,0.3,0.39,0.56c0.06,0.25,0.09,0.83,0.09,1.73v7.72c0,1.33-0.09,2.14-0.26,2.44c-0.17,0.3-0.63,0.45-1.37,0.45
		v-13.07C434.36,454.83,434.74,454.89,434.94,455.01z M442.48,451.43v19.86h5.14v-19.86H442.48z M461.42,459.66
		c0-2.04-0.05-3.48-0.15-4.29c-0.1-0.82-0.4-1.57-0.92-2.27s-1.19-1.22-2.03-1.56s-1.79-0.52-2.85-0.52c-1.12,0-2.09,0.18-2.93,0.55
		c-0.84,0.37-1.5,0.9-2,1.58c-0.49,0.69-0.79,1.45-0.88,2.28c-0.09,0.83-0.14,2.24-0.14,4.24v3.4c0,2.04,0.05,3.48,0.15,4.29
		c0.1,0.82,0.4,1.58,0.92,2.27c0.51,0.69,1.19,1.22,2.03,1.56s1.79,0.52,2.85,0.52c1.11,0,2.09-0.18,2.93-0.55
		c0.84-0.37,1.5-0.9,2-1.58c0.49-0.69,0.79-1.45,0.88-2.28c0.09-0.83,0.14-2.24,0.14-4.24V459.66z M456.28,465.66
		c0,1.17-0.05,1.91-0.15,2.22c-0.1,0.31-0.32,0.47-0.67,0.47c-0.34,0-0.56-0.13-0.65-0.41c-0.09-0.27-0.14-0.98-0.14-2.13v-9.28
		c0-1.02,0.07-1.64,0.21-1.85c0.14-0.21,0.35-0.31,0.62-0.31c0.32,0,0.53,0.13,0.63,0.39c0.1,0.26,0.15,0.85,0.15,1.77V465.66z
		 M463.34,471.29h5.14v-8.96c0.71,0,1.15,0.13,1.31,0.38c0.17,0.25,0.25,0.91,0.25,1.97v6.6h4.77v-5.24c0-1.6-0.04-2.58-0.13-2.94
		s-0.3-0.75-0.65-1.17c-0.35-0.42-1.03-0.76-2.05-1.02c1.12-0.11,1.88-0.43,2.26-0.96c0.38-0.53,0.57-1.57,0.57-3.12
		c0-1.69-0.27-2.93-0.81-3.7c-0.54-0.77-1.24-1.25-2.1-1.44c-0.86-0.19-2.5-0.28-4.93-0.28h-3.64V471.29z M469.7,455.12
		c0.22,0.2,0.34,0.61,0.34,1.24v1.09c0,0.88-0.12,1.39-0.35,1.55c-0.23,0.16-0.64,0.24-1.21,0.24v-4.42
		C469.07,454.83,469.48,454.93,469.7,455.12z"/>
</g>
</svg>
